<?xml version="1.0" ?><svg data-name="Layer 1" height="200" id="Layer_1" viewBox="0 0 200 200" width="200" xmlns="http://www.w3.org/2000/svg"><title/><path d="M171.28,41.69a48.29,48.29,0,0,0-68.5,0l-2.5,3-2.5-2.5a48.29,48.29,0,0,0-68.5,0c-19,18.5-19,49-1,68l50,53a29.92,29.92,0,0,0,43.5,0l50.5-53.5c17.5-19.5,17-49.5-1-68Zm-14,53.5-50.5,53.5a10.26,10.26,0,0,1-14.5,0l-50-53c-10.5-11.5-10.5-29,.5-40s29-11,40.5,0l2.5,2.5c8,8,20.5,8,28,0l2.5-2.5a28.37,28.37,0,0,1,40,0,27.78,27.78,0,0,1,1,39.5Z"/></svg>